<?xml version="1.0" standalone="no"?>
<!DOCTYPE svg PUBLIC "-//W3C//DTD SVG 20010904//EN"
 "http://www.w3.org/TR/2001/REC-SVG-20010904/DTD/svg10.dtd">
<svg version="1.0" xmlns="http://www.w3.org/2000/svg"
 width="5000.000000pt" height="3333.000000pt" viewBox="0 0 5000.000000 3333.000000"
 preserveAspectRatio="xMidYMid meet">
<metadata>
Created by potrace 1.16, written by Peter Selinger 2001-2019
</metadata>
<g transform="translate(0.000000,3333.000000) scale(0.100000,-0.100000)"
fill="#000000" stroke="none">
<path d="M18485 30185 c-38 -30 -79 -63 -91 -72 -11 -10 -50 -40 -86 -68 l-66
-50 53 -100 c29 -55 139 -271 245 -480 105 -209 195 -384 199 -388 9 -9 64 12
201 75 52 25 110 51 128 58 17 7 32 14 32 16 0 12 -532 1064 -538 1064 -4 -1
-38 -25 -77 -55z"/>
<path d="M33028 29048 c-19 -29 -44 -67 -53 -85 -18 -31 -17 -69 34 -1325 29
-711 54 -1303 57 -1316 l4 -22 713 2 c2723 10 2795 11 2800 33 2 12 0 43 -3
70 l-7 50 -2 -42 c-1 -28 -7 -45 -18 -52 -17 -10 -17 -10 0 -11 9 0 17 -4 17
-10 0 -7 -221 -9 -647 -8 -572 2 -611 3 -328 9 705 14 678 13 365 19 -228 4
-251 6 -117 8 103 1 167 6 167 12 0 6 16 10 35 10 37 0 41 5 25 30 -9 13 -10
13 -10 0 0 -13 -1 -13 -10 0 -9 13 -10 13 -10 0 0 -13 -1 -13 -10 0 -6 9 -10
11 -10 3 0 -7 -7 -10 -15 -7 -8 4 -15 12 -15 20 0 11 -25 14 -120 15 -202 2
-185 -1 -188 42 l-3 37 -120 0 -119 0 0 39 0 38 -117 3 c-65 1 -154 3 -198 4
l-80 1 -3 38 -3 37 -79 0 -79 0 -3 37 -3 38 -225 3 c-124 1 -231 5 -237 7 -7
2 -13 20 -13 40 0 19 -4 35 -10 35 -5 0 -10 -16 -10 -35 0 -19 -4 -35 -10 -35
-5 0 -10 16 -10 35 0 31 -3 35 -25 35 -22 0 -25 4 -25 40 0 23 -5 40 -11 40
-8 0 -10 -32 -8 -102 l4 -103 -30 -1 c-16 -1 -52 -5 -80 -9 -54 -8 -78 -10
-234 -20 -58 -3 -112 -10 -120 -14 -9 -4 -25 -5 -36 -2 -18 5 -20 15 -21 96
-3 242 -7 323 -14 360 -7 32 -8 24 -7 -43 l2 -82 -37 0 c-35 0 -37 2 -40 38
-3 43 20 39 -227 41 l-160 1 -3 38 c-3 36 -4 37 -45 40 -27 2 -43 -1 -43 -8 0
-6 -4 -8 -10 -5 -5 3 -10 -2 -10 -12 -1 -15 -3 -14 -14 6 -9 16 -14 70 -15
170 -1 80 -6 216 -11 301 -5 85 -18 355 -30 600 -11 245 -24 539 -30 654 -5
115 -7 213 -4 218 3 4 1 8 -4 8 -5 0 -25 -24 -44 -52z"/>
<path d="M25355 28774 c-61 -52 -191 -137 -281 -182 -100 -50 -159 -74 -404
-167 -316 -119 -466 -188 -600 -278 -85 -57 -222 -190 -294 -287 -72 -96 -210
-228 -301 -288 -44 -29 -159 -91 -255 -138 -380 -188 -433 -215 -509 -264 -83
-53 -156 -124 -187 -181 -16 -29 -19 -57 -19 -179 0 -166 3 -180 115 -530 129
-404 143 -480 145 -776 l2 -210 41 -70 c135 -226 200 -530 172 -804 -28 -287
-129 -560 -251 -680 -68 -67 -90 -110 -120 -236 -21 -87 -22 -122 -16 -384 1
-32 -45 -248 -110 -515 -25 -103 -132 -446 -153 -490 -5 -11 -21 -50 -34 -88
-14 -37 -32 -82 -40 -100 -8 -17 -26 -61 -40 -96 -45 -112 -44 -111 -140 -111
-64 0 -87 -4 -97 -16 -10 -13 -10 -17 2 -26 11 -8 11 -9 -3 -5 -9 3 -22 -1
-29 -9 -10 -12 -9 -14 7 -9 13 4 12 2 -3 -6 -13 -7 -23 -19 -23 -28 0 -10 -3
-12 -8 -5 -4 7 -15 1 -30 -18 -13 -15 -19 -28 -12 -28 6 0 13 7 17 16 4 12 8
13 13 3 12 -18 3 -71 -15 -88 -15 -15 -15 -13 -6 12 14 35 14 47 1 47 -5 0
-10 -9 -10 -20 0 -12 -7 -20 -16 -20 -14 0 -14 3 -4 15 7 9 11 18 8 21 -3 2
-25 -19 -49 -48 -24 -29 -47 -56 -52 -59 -14 -10 -25 -73 -17 -95 6 -16 3 -20
-13 -22 -12 0 -17 2 -10 6 6 4 10 19 10 34 l-2 28 -30 -33 c-16 -18 -45 -53
-64 -77 -19 -25 -46 -55 -60 -68 l-26 -24 25 7 c19 5 22 4 10 -4 -12 -9 -12
-13 -3 -19 8 -5 -1 -8 -22 -8 -19 0 -29 3 -23 7 7 5 10 11 6 14 -7 8 -81 -26
-91 -43 -5 -7 -12 -10 -18 -7 -5 3 -6 -1 -3 -9 3 -9 11 -16 16 -16 6 0 5 -6
-2 -15 -7 -8 -18 -15 -24 -15 -6 0 -5 4 3 9 12 8 12 11 0 23 -12 13 -20 12
-62 -5 -26 -11 -52 -29 -58 -39 -6 -12 -17 -17 -28 -13 -24 7 -158 -61 -166
-85 -4 -11 -11 -20 -16 -20 -6 0 -7 -4 -4 -10 8 -13 -5 -13 -25 0 -11 7 -12
10 -2 10 7 0 20 7 28 15 22 22 -3 20 -41 -4 -17 -10 -47 -23 -67 -30 -23 -8
-35 -17 -32 -25 4 -10 -3 -12 -23 -10 -15 2 -20 1 -10 -2 9 -3 17 -9 17 -12 0
-10 -70 -33 -110 -36 -19 -2 -66 -18 -105 -35 -38 -18 -95 -44 -125 -58 -30
-14 -68 -31 -84 -39 -16 -8 -36 -14 -44 -14 -7 0 -26 -13 -41 -29 -27 -29
-100 -71 -123 -71 -7 0 11 12 40 27 62 31 63 43 0 15 -23 -11 -59 -25 -80 -32
-25 -10 -34 -18 -30 -28 3 -10 1 -13 -6 -8 -18 11 -64 -5 -58 -20 3 -8 1 -14
-5 -14 -6 0 -7 -4 -4 -10 4 -6 -1 -7 -11 -3 -11 4 -13 8 -6 11 7 2 12 8 12 12
0 8 -36 -3 -95 -30 -11 -5 -50 -22 -88 -38 -37 -16 -64 -32 -60 -37 5 -4 -1
-5 -11 -1 -13 4 -23 0 -33 -14 -9 -13 -21 -19 -30 -16 -22 9 -184 -56 -178
-71 5 -15 -30 -36 -48 -30 -7 3 -1 9 13 15 14 6 18 11 10 11 -8 0 -33 -8 -55
-18 -22 -10 -52 -21 -67 -24 -19 -5 -28 -14 -30 -34 -2 -14 -9 -28 -16 -31
-11 -3 -11 -1 -1 16 7 12 9 25 5 29 -5 4 -11 2 -13 -4 -3 -7 -11 -13 -19 -13
-7 0 -32 -8 -56 -17 l-41 -17 37 -13 c21 -7 42 -10 47 -7 5 3 9 1 9 -4 0 -5
10 -12 23 -15 19 -5 124 -43 167 -60 25 -10 102 -38 149 -53 24 -7 50 -19 58
-25 7 -7 34 -13 58 -13 25 -1 40 -3 33 -5 -14 -5 152 -70 332 -131 14 -5 75
-27 135 -49 61 -22 157 -56 215 -77 58 -21 107 -41 110 -44 3 -4 23 -12 45
-17 57 -16 141 -47 157 -59 27 -21 336 -129 345 -121 3 3 25 -3 49 -13 84 -37
276 -101 282 -96 3 3 12 0 21 -8 14 -13 95 -43 526 -197 61 -22 117 -43 125
-47 8 -5 49 -19 90 -32 41 -13 79 -27 85 -32 5 -4 16 -8 25 -8 9 0 34 -8 56
-19 21 -10 71 -29 109 -41 39 -13 75 -26 80 -30 6 -4 57 -22 115 -40 58 -18
107 -36 110 -40 3 -3 25 -12 50 -19 25 -7 82 -28 127 -47 82 -34 82 -34 181
-24 54 5 105 11 113 14 15 5 61 9 291 25 326 23 555 31 857 31 l315 0 110 54
c192 95 359 169 411 185 22 7 49 16 60 21 11 5 67 23 125 40 58 18 114 36 125
40 11 5 121 41 245 80 124 39 234 75 245 80 23 10 418 135 455 145 14 3 34 10
45 15 11 5 58 21 105 35 47 15 91 28 98 31 7 2 11 8 8 13 -3 5 4 7 16 4 23 -4
23 -4 3 12 -34 28 -93 55 -108 49 -8 -3 -18 -1 -22 5 -4 7 0 8 11 4 12 -4 15
-3 10 6 -5 8 -18 10 -35 7 -18 -5 -22 -4 -12 3 10 7 -2 17 -48 40 -34 16 -69
28 -79 25 -11 -4 -13 -3 -5 3 8 6 -20 23 -85 53 -53 24 -124 56 -156 71 -33
15 -64 25 -69 22 -6 -4 -7 -1 -2 7 6 9 0 11 -21 6 -16 -3 -36 -1 -44 4 -11 8
-8 9 13 4 15 -3 27 -3 27 0 0 12 -66 32 -100 31 -28 -1 -36 2 -36 16 0 9 6 15
13 12 7 -3 13 -9 13 -14 0 -5 8 -9 17 -9 26 0 7 13 -87 61 -93 47 -191 106
-201 121 -4 6 -19 11 -35 12 -16 1 -34 5 -41 9 -7 4 -25 5 -40 2 l-28 -5 28
11 c21 8 31 8 43 -1 8 -7 17 -10 20 -8 3 3 -30 29 -73 58 -43 29 -99 70 -125
92 -27 22 -52 36 -58 33 -6 -3 -7 1 -4 10 5 11 2 14 -10 9 -11 -4 -19 2 -25
17 -11 28 -111 129 -111 112 0 -6 5 -14 10 -16 6 -3 5 -4 -2 -3 -7 1 -14 11
-14 22 -1 10 -32 93 -69 182 -75 180 -64 168 -181 199 -55 15 -66 15 -74 4 -6
-10 -10 0 -15 33 -4 26 -6 49 -4 51 2 2 58 -1 124 -7 134 -11 427 -5 550 12
93 13 99 18 227 169 279 330 546 870 761 1541 55 174 84 273 156 538 12 44 1
40 -31 -11 -62 -97 -148 -167 -148 -121 0 33 -83 181 -127 225 -112 116 -425
198 -983 260 -52 5 -108 12 -125 15 -16 2 -145 7 -285 11 -420 10 -680 -30
-924 -142 -99 -45 -185 -75 -216 -75 -45 0 -120 32 -198 84 -76 51 -229 195
-309 291 -182 218 -331 522 -395 808 -20 90 -23 129 -23 327 0 196 3 240 23
340 34 166 102 365 182 527 70 142 202 352 266 421 49 53 51 69 15 106 -17 18
-31 35 -31 40 0 4 -6 14 -14 21 -22 22 -76 160 -92 234 -28 134 -14 297 34
400 30 64 108 147 167 176 22 11 42 23 45 27 12 16 221 48 330 51 89 2 328
-10 351 -17 8 -3 59 -7 114 -11 113 -7 287 -23 325 -30 28 -5 260 -31 365 -40
39 -4 86 -8 105 -10 19 -3 94 -7 165 -11 72 -3 135 -9 142 -13 6 -3 85 -4 175
-1 171 6 181 4 278 -43 87 -42 228 -166 214 -188 -5 -8 -3 -9 5 -5 7 5 18 0
27 -10 32 -42 104 -154 104 -162 0 -5 6 -14 13 -20 10 -9 26 0 67 38 49 44 55
47 66 32 8 -9 14 -20 14 -24 0 -4 12 -24 26 -45 39 -57 79 -148 118 -266 45
-139 54 -195 32 -203 -28 -11 -171 -180 -240 -284 -75 -113 -157 -268 -204
-386 -18 -44 -32 -84 -32 -88 0 -4 33 26 73 67 111 111 219 177 293 177 57 0
117 -62 100 -105 -3 -8 -1 -15 4 -15 16 0 60 197 60 269 0 35 15 74 90 236 99
214 157 345 195 440 15 39 33 84 41 100 28 64 93 272 99 320 6 44 2 62 -36
150 -23 55 -45 105 -49 110 -4 6 -24 41 -45 79 -37 67 -129 207 -169 257 -12
14 -32 40 -45 57 -13 18 -28 32 -33 32 -5 0 -7 -4 -4 -8 12 -20 -38 -251 -84
-392 -34 -105 -165 -381 -198 -420 l-22 -25 16 40 c54 131 131 459 154 649 19
157 12 386 -16 556 -10 61 -55 203 -83 260 -14 30 -44 79 -66 108 -43 57 -50
59 -144 41 -386 -73 -852 -168 -1054 -216 -37 -9 -70 -13 -74 -10 -3 4 4 37
16 74 36 115 51 203 58 341 3 72 4 132 2 132 -2 -1 -22 -16 -44 -36z m-174
-5370 c86 -59 266 -140 369 -168 119 -32 240 -46 397 -46 151 0 254 13 360 47
54 16 92 23 110 18 64 -16 169 -120 205 -204 10 -25 26 -87 35 -139 15 -89 15
-103 -1 -196 -34 -197 -128 -430 -221 -549 -56 -71 -97 -97 -152 -97 -33 0
-50 7 -78 31 -44 39 -104 161 -139 284 -54 186 -69 231 -81 249 -23 31 -109
46 -266 46 l-147 0 -68 -72 c-102 -109 -222 -216 -289 -261 -55 -35 -65 -38
-110 -34 -184 19 -477 196 -578 351 -76 115 -86 214 -34 342 62 152 188 277
357 352 59 27 224 77 266 81 7 0 36 -15 65 -35z m-2850 -2264 c13 -24 29 -50
36 -57 6 -7 17 -26 25 -43 7 -16 16 -30 20 -30 5 0 8 -5 8 -11 0 -6 14 -31 30
-56 17 -24 30 -48 30 -54 0 -5 5 -9 10 -9 6 0 10 -7 10 -15 0 -8 5 -15 10 -15
6 0 10 -6 10 -13 0 -7 8 -22 18 -33 10 -10 40 -50 67 -89 203 -287 476 -581
655 -706 19 -13 37 -27 40 -30 3 -3 34 -25 70 -49 118 -77 259 -140 425 -189
123 -37 365 -39 489 -6 223 61 387 173 523 358 37 51 74 102 81 115 46 82 70
131 76 155 12 48 26 29 26 -36 0 -82 -26 -231 -57 -332 -54 -172 -188 -411
-304 -539 -54 -60 -184 -159 -246 -186 -132 -58 -294 -70 -443 -31 -89 23
-289 115 -327 150 -12 12 -25 21 -29 21 -4 0 -22 11 -40 25 -18 14 -36 25 -41
25 -5 0 -16 8 -25 18 -9 9 -23 22 -30 27 -27 20 -153 131 -185 163 -36 35 -51
40 -59 17 -10 -26 -25 -16 -18 11 6 25 5 26 -19 21 -17 -5 -27 -2 -31 8 -6 17
13 32 23 18 3 -5 17 -12 29 -16 20 -5 17 0 -15 31 -22 20 -42 45 -46 55 -7 18
-27 24 -27 8 0 -5 7 -17 16 -26 9 -8 13 -23 10 -31 -5 -14 -10 -12 -26 9 -11
14 -20 29 -20 35 0 5 -9 17 -19 26 -18 17 -20 17 -29 0 -9 -15 -13 -14 -46 11
-20 15 -35 34 -32 41 3 8 0 11 -10 7 -7 -3 -14 0 -14 6 0 6 -18 30 -40 52 -22
23 -40 44 -40 48 0 3 -14 22 -31 41 -17 19 -38 47 -47 62 -9 15 -20 28 -24 28
-4 0 -8 6 -8 14 0 8 -4 16 -8 18 -5 2 -23 26 -42 53 -18 28 -36 52 -39 55 -3
3 -15 23 -26 44 -11 22 -24 44 -30 50 -5 6 -19 27 -29 46 -11 19 -22 37 -25
40 -4 3 -44 82 -91 175 -74 148 -96 195 -140 300 -46 111 -113 310 -155 460
-9 33 -23 80 -31 104 -33 106 -7 73 85 -109 54 -107 109 -215 122 -240z"/>
<path d="M37864 28038 c-164 -189 -313 -358 -331 -378 -203 -227 -241 -278
-198 -268 7 2 100 102 205 223 105 121 217 249 249 285 69 77 275 313 346 395
53 61 65 85 43 85 -8 0 -149 -154 -314 -342z"/>
<path d="M28404 27588 c13 -35 61 -160 106 -278 46 -118 100 -260 121 -315 83
-224 181 -481 252 -660 41 -104 80 -207 86 -227 7 -21 16 -38 21 -38 9 0 36
33 192 236 35 45 97 126 138 180 98 129 212 278 336 439 255 331 296 387 288
394 -5 4 -232 54 -504 110 -272 57 -621 130 -775 162 -153 32 -281 59 -282 59
-2 0 8 -28 21 -62z m212 -24 c93 -19 189 -39 214 -44 46 -9 177 -37 739 -155
173 -36 317 -68 319 -70 3 -2 -8 -21 -24 -42 -16 -20 -77 -100 -137 -178 -59
-77 -162 -212 -230 -299 -154 -202 -265 -347 -392 -513 -55 -72 -103 -128
-107 -125 -6 6 -89 221 -183 472 -44 118 -170 446 -212 555 -132 336 -168 435
-161 435 3 0 81 -16 174 -36z"/>
<path d="M25505 26499 c-110 -27 -333 -81 -495 -120 -162 -39 -335 -82 -385
-95 -248 -68 -444 -215 -501 -377 -17 -48 -12 -57 19 -30 41 37 171 94 290
129 186 53 298 65 687 71 l345 5 60 62 c83 86 158 215 206 354 l18 52 -22 -1
c-12 -1 -112 -23 -222 -50z"/>
<path d="M17656 25413 c-4 -159 -7 -364 -7 -458 0 -93 -4 -186 -8 -205 -5 -20
-9 -26 -10 -15 -1 11 -10 28 -21 38 -19 16 -48 17 -341 15 -245 -2 -318 0
-315 9 3 7 -1 10 -10 6 -19 -7 -18 7 4 24 9 8 2 6 -15 -3 -18 -10 -33 -22 -33
-26 0 -4 -5 -8 -11 -8 -15 0 -95 -72 -92 -82 2 -4 -5 -4 -14 -1 -10 4 -14 2
-10 -4 4 -6 -7 -16 -23 -23 -42 -17 -51 -35 -14 -26 27 6 27 5 11 -8 -18 -14
-17 -14 2 -21 12 -4 18 -11 15 -17 -5 -8 -1 -9 10 -5 9 4 14 3 11 -2 -8 -14
34 -40 54 -34 12 4 13 3 3 -5 -11 -7 10 -30 85 -93 54 -46 116 -97 136 -114
23 -18 37 -36 34 -46 -7 -27 -171 -238 -186 -238 -10 -1 -258 179 -500 363
-12 9 -13 8 -8 -6 3 -10 2 -17 -2 -15 -17 4 -91 -48 -86 -61 3 -7 0 -10 -6 -7
-5 4 -73 -41 -150 -99 -77 -58 -144 -106 -149 -106 -5 0 -13 -6 -17 -13 -15
-23 -79 -65 -89 -59 -6 4 -50 60 -99 126 l-88 118 39 37 c56 52 113 101 164
141 25 19 68 58 96 85 27 28 63 57 78 64 l27 15 -28 15 c-15 8 -32 20 -38 26
-5 7 -28 25 -49 41 -30 21 -38 24 -33 12 3 -10 2 -18 -3 -18 -6 0 -10 12 -10
26 0 14 -4 23 -10 19 -16 -10 -11 -53 8 -64 16 -10 16 -10 0 -11 -20 0 -34 19
-30 42 3 14 -3 16 -32 11 -39 -6 -46 2 -19 23 10 7 15 15 11 19 -4 4 -19 -5
-35 -19 l-28 -26 -227 0 c-145 0 -228 4 -228 10 0 6 85 10 234 10 l234 0 16
25 c17 25 17 25 47 8 25 -15 27 -19 12 -25 -16 -6 -16 -7 -1 -7 30 -2 29 17
-1 38 -37 26 -58 27 -66 1 -6 -19 -15 -20 -240 -20 -163 0 -236 3 -241 11 -4
8 -10 6 -17 -6 -6 -12 -6 -20 3 -25 11 -7 10 -12 -3 -24 -23 -24 -27 -20 -27
24 0 55 -17 50 -24 -7 -3 -27 -9 -280 -12 -564 l-7 -516 674 -7 c371 -3 924
-9 1231 -12 l556 -6 6 73 c3 41 22 444 41 897 l35 823 -39 67 c-74 130 -106
182 -112 182 -3 0 -9 -129 -13 -287z m-54 -656 c4 -7 7 -23 6 -37 -1 -24 -1
-24 -5 2 l-4 27 -322 3 c-246 2 -327 0 -346 -10 -20 -10 -26 -10 -32 0 -18 29
32 33 362 30 247 -2 335 -6 341 -15z"/>
<path d="M26433 25380 c-28 -27 -40 -46 -37 -58 5 -14 4 -15 -5 -2 -5 8 -11
12 -13 10 -2 -3 -17 -23 -33 -45 -45 -60 -103 -180 -135 -280 -39 -125 -76
-285 -64 -285 2 0 23 10 46 21 51 26 160 57 239 68 68 9 65 17 35 -81 l-15
-48 29 -15 c40 -21 38 -32 -9 -45 -42 -11 -42 -11 -56 -107 -7 -47 -11 -50
-41 -28 -12 8 -24 12 -27 9 -10 -10 -82 34 -135 81 -62 56 -70 46 -9 -12 70
-68 137 -107 254 -151 62 -23 115 -42 118 -42 3 0 5 19 4 43 -1 27 5 57 19 83
29 58 59 171 68 255 l7 71 46 -6 c25 -4 60 -9 76 -12 25 -5 19 3 -41 48 l-71
53 -7 85 c-8 110 -30 194 -71 280 -41 83 -68 116 -104 125 -24 7 -25 8 -6 15
l20 9 -20 0 c-11 1 -39 -17 -62 -39z"/>
<path d="M21967 25283 c-14 -4 -16 -13 -11 -61 3 -31 10 -79 15 -105 5 -26 9
-66 9 -87 0 -45 16 -128 29 -149 7 -11 15 -8 37 14 26 26 28 27 35 9 5 -12 8
5 10 46 l2 65 6 -55 6 -55 7 66 c13 127 41 150 140 119 66 -21 97 -25 63 -9
-16 7 -13 8 11 4 22 -4 35 -1 49 15 21 23 41 26 48 8 2 -7 8 -9 13 -5 5 4 4
11 -1 15 -6 4 -17 16 -25 26 -15 19 -14 19 13 2 28 -19 37 -14 15 8 -48 46
-148 97 -238 121 -51 14 -193 19 -233 8z"/>
<path d="M24420 25260 c0 -5 -8 -10 -19 -10 -10 0 -21 -8 -24 -17 -3 -10 -15
-44 -26 -77 -12 -32 -19 -62 -16 -66 3 -5 1 -10 -3 -12 -13 -4 -22 -88 -11
-88 6 0 26 8 47 19 93 47 313 96 475 106 l99 6 -7 -23 c-4 -13 -13 -34 -20
-48 -7 -14 -16 -42 -20 -62 -6 -30 -3 -38 15 -51 24 -17 19 -37 -10 -37 -20 0
-28 -47 -22 -139 3 -45 7 -52 28 -57 14 -4 23 -8 20 -11 -2 -2 -25 3 -50 11
-28 10 -68 14 -103 12 -55 -4 -56 -3 -28 9 l30 13 -40 7 c-22 4 -46 12 -52 18
-9 6 -13 5 -13 -4 -1 -11 -4 -10 -13 2 -12 17 -161 84 -152 69 3 -5 25 -16 50
-25 25 -10 42 -22 38 -28 -4 -6 0 -8 10 -4 10 3 17 2 17 -3 0 -17 54 -38 85
-34 27 3 27 3 5 -4 -31 -10 -25 -13 80 -52 58 -21 87 -27 94 -20 5 5 17 10 25
10 12 0 11 -3 -3 -13 -17 -12 -14 -15 25 -29 64 -24 179 -42 190 -31 5 5 11
38 13 73 3 38 13 83 25 107 27 54 48 146 57 246 7 77 7 78 33 73 62 -12 111
-17 111 -13 0 3 -29 28 -64 56 -68 53 -73 55 -179 66 -63 7 -83 17 -54 28 7 4
6 6 -5 6 -9 1 -18 -3 -20 -8 -5 -14 -127 -21 -157 -9 -14 6 -39 10 -56 10 -16
0 -24 2 -18 5 10 3 9 8 -2 19 -15 15 -135 18 -135 4 0 -4 -43 -8 -96 -9 -64
-1 -94 2 -89 9 4 6 -7 10 -29 10 -20 0 -36 -4 -36 -10z"/>
<path d="M20526 24981 c-4 -6 79 -184 183 -395 149 -302 193 -384 206 -380 8
3 15 8 15 9 0 12 -383 771 -390 773 -4 2 -11 -1 -14 -7z"/>
<path d="M22521 24928 c-68 -69 -118 -160 -147 -269 -19 -73 -23 -226 -7 -279
11 -35 11 -35 12 -6 1 16 4 27 7 23 3 -3 13 1 22 8 10 8 36 29 59 48 24 20 56
41 73 49 22 9 30 20 30 39 0 14 8 33 18 42 24 22 86 47 116 47 18 0 26 6 29
23 3 21 4 21 15 -5 6 -16 14 -28 17 -28 7 0 -50 149 -91 236 -39 84 -70 134
-83 134 -4 0 -36 -28 -70 -62z"/>
<path d="M43015 24616 c-67 -21 -118 -52 -163 -97 -147 -147 -146 -380 2 -524
123 -119 287 -143 437 -64 178 95 245 310 154 494 -76 155 -271 241 -430 191z"/>
<path d="M31395 24034 c-60 -36 -128 -76 -150 -88 -142 -81 -242 -141 -253
-151 -10 -9 -4 -28 33 -96 25 -46 69 -130 98 -187 33 -65 56 -101 64 -97 8 2
44 25 83 50 38 25 71 45 74 45 3 0 55 32 116 70 61 39 113 70 115 70 2 0 26
14 54 31 43 27 49 34 41 53 -17 42 -92 233 -117 299 -14 37 -30 67 -37 67 -6
0 -60 -30 -121 -66z"/>
<path d="M25380 23880 c-12 -8 -10 -14 15 -41 47 -50 96 -75 155 -82 45 -6
225 -62 331 -105 14 -5 60 -15 103 -22 75 -11 82 -11 155 16 42 15 80 31 86
35 5 5 17 9 27 9 10 0 18 4 18 9 0 5 19 20 43 34 23 14 54 36 69 50 16 14 34
30 42 34 8 4 -54 8 -137 8 -143 0 -254 11 -503 51 -102 16 -381 19 -404 4z"/>
<path d="M16725 22903 c-19 -79 -110 -185 -185 -217 -25 -10 -59 -25 -76 -32
-17 -7 -72 -21 -123 -31 -104 -20 -107 -24 -96 -110 7 -59 11 -60 75 -28 27
14 128 35 167 35 25 0 34 -15 58 -105 22 -81 168 -505 172 -501 8 8 10 41 3
46 -4 3 -10 16 -14 30 -7 25 -7 25 6 3 11 -18 12 1 10 120 -2 78 -8 147 -12
153 -9 9 3 428 15 519 13 107 16 145 12 145 -3 0 -8 -12 -12 -27z"/>
<path d="M42535 22793 c-192 -2 -3131 -21 -6530 -43 -4342 -28 -6198 -43
-6240 -51 -232 -43 -420 -228 -467 -457 -13 -69 -12 -113 72 -2492 121 -3448
141 -4010 138 -4065 l-3 -59 -86 85 c-128 126 -237 302 -294 473 -13 39 -37
103 -55 141 -17 39 -36 79 -41 90 -12 28 -74 237 -99 336 -27 105 -55 243
-131 639 -81 428 -129 636 -180 780 -15 44 -35 74 -42 63 -3 -4 -24 -44 -47
-88 -46 -86 -57 -106 -147 -265 -110 -193 -364 -601 -393 -630 -3 -3 -25 -34
-49 -70 -53 -77 -236 -318 -284 -375 l-34 -39 -46 144 c-25 80 -56 180 -69
222 -12 43 -26 74 -30 70 -4 -4 -8 -95 -9 -202 -1 -187 -13 -351 -27 -374 -3
-6 -5 -22 -4 -36 2 -14 -4 -74 -13 -134 -8 -60 -15 -129 -15 -153 0 -23 -5
-73 -10 -110 -6 -38 -26 -234 -45 -438 -58 -612 -78 -789 -86 -801 -7 -8 -24
-7 -62 3 -56 15 -190 43 -222 46 -11 1 -22 5 -25 8 -3 3 -34 9 -70 12 -58 5
-60 5 -22 -4 l42 -10 0 -120 0 -119 -30 0 c-28 0 -30 -2 -30 -40 0 -36 -2 -40
-25 -40 l-26 0 5 -167 c6 -212 6 -217 26 -197 13 13 13 16 0 24 -8 5 -11 12
-7 17 5 4 12 2 16 -5 6 -10 21 -1 54 32 26 25 47 52 47 59 0 8 7 20 15 27 9 7
13 20 10 29 -2 9 0 23 6 31 8 12 9 9 4 -10 -6 -24 -5 -24 19 5 14 17 26 33 26
37 0 4 23 41 50 82 28 41 54 84 58 96 6 15 16 -16 41 -117 97 -399 300 -982
462 -1331 22 -46 39 -87 39 -90 0 -19 314 -634 318 -623 2 7 0 16 -5 20 -9 6
-34 67 -33 80 1 3 14 -21 30 -54 21 -44 26 -61 17 -67 -9 -6 -9 -8 1 -8 6 0
12 -6 12 -14 0 -7 8 -16 18 -18 10 -3 26 -22 36 -42 9 -20 22 -36 28 -36 7 0
3 -7 -8 -16 -19 -15 -18 -15 3 -11 16 4 24 -1 30 -17 4 -11 6 -24 5 -28 -1 -3
5 -12 13 -18 8 -7 15 -17 15 -22 0 -17 -17 1 -34 37 -9 19 -21 35 -27 35 -5 0
-2 -12 7 -27 33 -54 69 -108 75 -113 3 -3 14 -20 23 -38 10 -19 20 -31 24 -28
3 4 -9 28 -28 54 -18 26 -35 58 -36 72 -7 55 -17 90 -24 90 -5 0 -10 12 -12
28 -2 19 -8 27 -21 25 -10 0 -16 1 -13 4 3 3 -1 12 -9 20 -8 8 -15 20 -14 26
0 8 2 8 6 -1 3 -7 18 -19 34 -27 16 -9 29 -24 29 -34 0 -10 7 -24 15 -31 9 -8
13 -21 9 -36 l-6 -23 151 0 151 -1 2 43 c1 23 0 116 -1 207 -4 246 24 569 65
757 26 121 37 164 78 293 31 98 80 275 101 370 19 84 112 386 145 470 12 30
25 66 29 80 5 14 35 81 67 150 50 108 83 169 186 350 24 41 68 107 116 170 46
62 48 64 134 165 87 103 135 149 141 138 3 -5 8 -119 12 -254 l7 -246 -33 -35
c-19 -19 -50 -54 -69 -78 -19 -24 -43 -51 -52 -61 -10 -11 -18 -23 -18 -29 0
-5 -3 -10 -7 -10 -5 0 -19 -17 -33 -38 -14 -20 -35 -48 -47 -61 -11 -13 -27
-35 -35 -50 -7 -14 -24 -38 -38 -52 -14 -15 -34 -44 -45 -65 -11 -22 -22 -41
-25 -44 -3 -3 -14 -18 -23 -33 -18 -28 -18 -29 3 -47 13 -11 17 -21 10 -25 -5
-3 -10 -2 -10 3 0 6 -7 12 -15 16 -14 5 -45 -38 -45 -64 0 -20 18 -9 24 15 9
36 29 32 24 -5 -3 -16 -1 -30 4 -30 4 0 8 6 8 14 0 17 23 46 118 143 40 42 71
77 69 79 -2 3 50 59 117 125 l121 120 2 -68 c13 -329 22 -429 45 -494 36 -98
74 -156 147 -229 70 -69 172 -127 266 -150 39 -10 1468 -12 6728 -11 5824 2
6684 4 6733 17 198 51 364 215 420 414 22 77 212 7850 195 7974 -10 75 -55
194 -91 240 -96 125 -228 214 -357 241 -70 15 -66 15 -1088 8z m1091 -48 c203
-52 364 -219 404 -419 15 -73 19 124 -85 -4306 -52 -2209 -89 -3600 -96 -3640
-27 -155 -150 -321 -290 -388 -140 -68 474 -63 -6864 -60 l-6640 3 -69 22
c-184 60 -324 202 -373 378 -14 52 -18 115 -33 515 -18 470 -70 1909 -90 2485
-11 319 -27 769 -35 1000 -51 1413 -115 3312 -120 3555 -6 289 -1 361 30 423
8 17 15 36 15 44 0 7 5 13 10 13 6 0 9 3 8 8 -4 13 23 53 32 47 6 -3 8 0 5 7
-7 18 94 122 146 150 23 13 52 29 65 36 43 24 172 51 255 53 46 2 2480 18
5409 36 2929 18 5705 37 6170 41 1513 15 2078 14 2146 -3z"/>
<path d="M7939 22065 c-1 -6 -1 -13 -1 -16 1 -11 -28 -648 -33 -729 -3 -47 -8
-123 -10 -170 -2 -47 -7 -146 -10 -220 -4 -74 -9 -137 -11 -140 -3 -2 -9 2
-14 10 -8 12 -10 10 -10 -7 0 -13 5 -23 10 -23 6 0 10 -41 10 -102 0 -70 -3
-98 -10 -88 -5 8 -7 23 -4 33 3 9 2 27 -2 40 -7 21 -7 21 -15 2 -7 -17 -8 -16
-8 8 -1 15 4 27 9 27 6 0 10 14 10 30 0 29 -2 30 -45 30 -43 0 -45 -1 -45 -30
0 -34 16 -31 -212 -34 l-108 -1 0 -38 0 -39 -61 4 c-50 4 -62 1 -70 -13 -5
-10 -7 -24 -4 -31 2 -7 1 -28 -3 -47 -6 -29 -13 -35 -37 -38 l-30 -3 27 17
c19 12 26 26 28 50 3 63 4 73 12 73 4 0 8 8 8 17 0 15 -2 14 -15 -3 -8 -10
-15 -26 -15 -34 -1 -51 -21 -87 -58 -103 -21 -9 -54 -18 -73 -19 -31 -1 -30
-2 11 -8 31 -5 19 -6 -40 -4 -56 2 -76 0 -60 -5 23 -8 24 -9 3 -10 -12 -1 -25
-6 -28 -11 -4 -6 -11 -7 -17 -4 -6 4 -5 10 3 16 10 7 5 8 -13 4 -16 -4 -28 -2
-28 3 0 5 46 14 103 21 56 6 107 13 112 15 15 6 -152 -3 -209 -11 -35 -4 -51
-3 -57 7 -4 7 -11 11 -14 7 -4 -3 3 -16 14 -27 12 -12 16 -21 10 -21 -17 0
-38 32 -39 58 0 13 -4 20 -10 17 -6 -4 -8 -15 -5 -24 13 -42 -3 -51 -86 -51
-46 0 -79 -4 -79 -10 0 -6 -33 -10 -80 -10 l-80 0 0 -31 0 -30 -87 1 c-49 1
-121 1 -160 1 l-73 -1 0 -40 0 -40 -80 0 c-44 0 -80 -4 -80 -10 0 -5 -35 -10
-77 -12 -67 -3 -78 -6 -81 -22 -2 -10 1 -22 8 -26 6 -4 -42 -10 -107 -14 -65
-3 -141 -9 -170 -12 -44 -6 -52 -4 -56 12 -4 13 -5 11 -4 -6 l2 -25 490 -6
c270 -3 798 -7 1175 -8 l686 -1 32 808 c18 444 35 850 38 902 l5 95 -41 55
c-22 30 -41 50 -41 45z"/>
<path d="M19003 21942 c-126 -52 -191 -199 -151 -336 19 -64 101 -141 173
-161 129 -38 258 21 316 144 17 36 20 60 17 122 -3 70 -7 82 -41 131 -50 73
-115 110 -206 115 -47 2 -78 -2 -108 -15z"/>
<path d="M17911 19638 c-8 -13 -21 -34 -30 -48 -15 -23 -15 -24 2 -11 16 12
16 11 11 -20 -4 -19 -11 -42 -15 -51 -5 -9 -9 -38 -9 -63 0 -38 3 -46 15 -41
12 4 14 -4 13 -40 -2 -37 -5 -42 -14 -30 -9 13 -11 5 -10 -39 0 -38 4 -55 13
-55 9 0 13 -21 13 -75 0 -63 -3 -75 -17 -75 -14 0 -15 -12 -10 -120 6 -100 4
-120 -7 -120 -12 0 -15 -63 -18 -395 -2 -320 -6 -397 -17 -404 -9 -6 -10 -11
-2 -15 6 -4 11 -20 11 -37 0 -16 5 -29 10 -29 6 0 10 -9 10 -20 0 -11 -3 -20
-8 -20 -4 0 -13 9 -20 20 -7 11 -17 20 -23 20 -7 0 -5 -9 5 -22 9 -13 19 -30
23 -38 4 -8 17 -26 30 -40 13 -14 26 -33 29 -42 3 -10 10 -18 15 -18 5 0 9 -5
9 -11 0 -6 6 -16 13 -23 6 -7 30 -34 52 -61 43 -52 136 -147 201 -206 59 -53
218 -160 222 -149 2 6 -21 72 -52 148 -91 228 -167 443 -225 643 -47 163 -104
399 -121 507 -6 37 -14 74 -17 82 -3 8 -7 29 -9 45 -2 17 -10 68 -18 115 -26
148 -41 324 -47 550 -1 47 -4 75 -6 63 -4 -20 -23 -34 -23 -17 0 20 24 83 30
79 5 -3 10 15 12 40 4 50 -1 55 -21 23z"/>
<path d="M12060 18373 c-52 -25 -97 -47 -99 -48 -4 -4 12 -35 56 -115 17 -30
48 -86 68 -125 21 -38 47 -86 58 -105 50 -86 148 -265 195 -355 14 -27 32 -57
40 -66 35 -43 -48 -257 -153 -394 -93 -122 -84 -118 -231 -117 -147 1 -205 12
-328 62 l-88 35 -24 65 c-13 36 -29 76 -36 90 -6 14 -12 30 -14 35 -2 8 -81
214 -179 465 -7 19 -26 70 -42 113 -33 91 -29 91 -157 24 -91 -47 -83 -34
-118 -217 -19 -99 -22 -149 -22 -360 0 -237 1 -249 31 -385 40 -182 64 -234
144 -313 82 -83 218 -182 193 -140 -4 7 -3 8 5 4 6 -4 9 -11 6 -16 -5 -9 38
-40 55 -40 6 0 18 -7 27 -16 9 -8 27 -13 42 -11 14 2 20 2 12 -1 -20 -6 70
-44 91 -38 10 2 18 0 18 -5 0 -5 11 -9 23 -9 13 0 27 -3 31 -7 4 -4 25 -6 48
-4 30 2 38 0 33 -10 -6 -8 -4 -10 6 -3 17 11 110 14 103 3 -2 -4 30 -70 72
-146 42 -76 88 -158 101 -183 l24 -45 -5 35 c-3 19 -3 29 0 23 11 -26 22 -12
14 17 -8 29 3 43 13 18 3 -7 6 -1 6 14 1 15 7 33 14 40 8 7 16 24 20 38 4 14
17 37 31 51 14 15 22 30 18 33 -3 4 2 4 13 0 16 -5 18 -4 8 6 -9 10 -5 18 20
39 17 14 34 25 39 24 4 -2 5 3 3 10 -10 30 260 166 333 167 13 0 20 4 17 10
-4 6 11 11 37 12 77 3 93 5 111 13 21 9 131 -11 169 -31 16 -8 28 -12 28 -10
0 9 -61 171 -79 211 -10 22 -24 57 -31 78 l-12 38 -28 -18 c-15 -10 -51 -37
-80 -60 -51 -42 -70 -51 -70 -35 0 5 12 15 28 22 25 12 26 13 7 21 -14 7 -11
7 13 3 24 -4 32 -2 32 9 0 19 29 44 63 52 17 5 29 16 33 31 3 13 10 24 15 24
14 0 11 -28 -3 -33 -7 -2 -10 -7 -7 -11 3 -3 21 13 39 36 24 29 34 51 33 72
-2 24 0 26 6 12 6 -16 13 -10 40 38 21 38 30 65 26 79 -4 15 -3 18 3 9 9 -13
31 51 53 158 18 83 23 286 9 350 -24 108 -116 239 -294 416 -160 161 -318 276
-511 376 l-70 36 -95 -45z"/>
<path d="M17165 17730 c2 -30 7 -66 9 -80 2 -14 7 -53 11 -87 4 -35 10 -63 14
-63 3 0 6 -24 7 -52 1 -29 4 -89 7 -133 3 -44 9 -183 12 -310 4 -126 11 -238
17 -248 11 -22 3 -51 -12 -42 -6 4 -10 -23 -10 -74 0 -47 4 -81 10 -81 6 0 10
-7 10 -15 0 -8 7 -15 15 -15 19 0 20 26 1 33 -30 12 -30 127 0 127 13 0 19
-28 16 -75 -1 -11 1 -35 4 -52 5 -31 8 -33 44 -33 35 0 39 -3 45 -32 7 -30 8
-31 21 -13 13 18 14 17 14 -8 0 -20 -5 -27 -20 -27 -11 0 -20 -4 -20 -10 0 -5
6 -7 14 -4 11 4 16 -12 22 -68 8 -68 9 -61 14 97 3 94 3 172 0 175 -3 3 -6 59
-7 126 -2 66 -9 153 -18 192 -8 40 -17 102 -21 139 -3 37 -10 75 -15 84 -5 10
-9 27 -9 38 0 12 -4 21 -10 21 -5 0 -7 6 -4 13 2 7 -7 57 -21 112 -14 55 -25
110 -25 122 0 13 -4 31 -9 41 -24 44 -59 130 -66 161 -4 19 -16 48 -27 65
l-19 31 6 -55z"/>
<path d="M7864 17709 c-3 -6 -2 -15 2 -19 11 -11 712 -380 727 -383 21 -4 17
28 -5 39 -13 6 -148 76 -300 157 -389 205 -416 218 -424 206z"/>
<path d="M21080 16670 c0 -324 -1 -593 -2 -597 -2 -5 159 -9 357 -10 1760 -10
3541 -67 5138 -164 191 -12 349 -20 352 -18 2 2 8 78 14 169 17 246 40 586 51
754 6 81 9 150 7 152 -10 11 -934 96 -1672 154 -1061 83 -2773 150 -3882 150
l-363 0 0 -590z m1128 330 c158 -15 241 -83 262 -216 13 -82 -3 -327 -24 -379
-17 -40 -66 -99 -98 -116 -57 -31 -134 -39 -314 -33 l-181 7 -28 78 c-16 43
-32 76 -37 73 -4 -3 -8 -38 -8 -77 l0 -72 -106 5 -106 5 1 120 c5 269 18 602
25 614 7 10 64 11 270 6 143 -4 298 -10 344 -15z m807 -20 c204 -6 380 -13
393 -16 19 -4 22 -11 22 -52 0 -26 -3 -77 -6 -113 l-7 -66 -98 -31 c-54 -18
-101 -32 -104 -32 -3 0 -5 24 -5 53 l0 54 -97 6 c-54 4 -153 7 -220 7 l-123 0
0 -50 0 -50 78 0 c42 0 121 -3 176 -7 l99 -6 -7 -75 c-3 -42 -7 -76 -9 -76 -1
-1 -67 1 -146 4 l-144 5 -21 60 -20 60 -9 -99 c-4 -54 -6 -104 -3 -111 3 -9
73 -14 278 -19 150 -4 293 -9 318 -12 l45 -5 -3 -95 -3 -94 -100 0 c-192 0
-744 21 -752 29 -8 8 10 703 18 729 5 15 -7 15 450 2z m1097 -36 c135 -4 252
-10 258 -14 8 -5 9 -34 4 -98 l-7 -91 -95 -30 c-52 -17 -98 -31 -103 -31 -5 0
-9 20 -9 44 l0 43 -47 6 c-69 9 -369 11 -382 3 -15 -10 -14 -51 2 -64 6 -6
120 -29 252 -52 298 -51 311 -54 352 -95 l33 -33 0 -104 c0 -128 -21 -181 -85
-213 -36 -18 -58 -20 -220 -18 -99 0 -271 4 -382 8 l-203 7 0 99 0 99 253 -7
c138 -5 281 -8 317 -8 l65 0 0 45 c0 45 0 45 -40 51 -577 84 -591 90 -589 253
1 102 16 149 57 180 43 32 62 35 202 30 66 -2 231 -7 367 -10z m572 -186 c-3
-95 -9 -265 -13 -378 -3 -113 -9 -204 -13 -202 -5 1 -54 2 -109 2 l-102 0 6
163 c4 89 10 258 13 375 l7 212 108 0 109 0 -6 -172z m749 145 l227 -6 0 -98
c0 -83 -3 -98 -17 -104 -21 -8 -186 -65 -189 -65 -2 0 -4 19 -6 43 l-3 42
-200 6 c-120 4 -209 2 -221 -4 -34 -15 -46 -54 -51 -167 -6 -117 7 -163 50
-179 12 -5 111 -12 220 -16 l197 -7 0 101 0 101 74 0 c40 0 88 -3 105 -6 l31
-6 0 -127 c0 -69 -3 -156 -7 -193 l-6 -68 -146 0 c-80 1 -235 5 -344 9 -189 9
-200 10 -253 37 -115 58 -139 115 -136 329 4 235 40 320 155 364 60 23 145 25
520 14z m599 -19 l106 -7 141 -289 c123 -252 159 -313 176 -297 2 2 6 119 10
259 3 140 8 270 11 288 l5 32 82 0 c45 0 88 -4 96 -9 12 -8 12 -63 2 -364 -6
-195 -13 -361 -16 -369 -5 -11 -35 -13 -158 -11 -233 5 -194 -22 -327 236 -63
122 -129 252 -147 290 -33 66 -57 84 -67 50 -2 -10 -8 -138 -12 -285 l-7 -268
-98 0 c-96 0 -99 1 -99 23 0 82 22 704 25 715 5 14 107 16 277 6z"/>
<path d="M21797 16754 c-4 -38 -7 -119 -7 -180 l0 -111 191 -6 c106 -3 201 -2
214 3 42 16 56 52 62 158 7 117 -5 163 -45 182 -17 8 -97 14 -218 18 l-191 5
-6 -69z"/>
<path d="M17770 16940 c0 -16 4 -96 10 -177 5 -82 17 -278 25 -438 14 -253 20
-307 46 -420 17 -71 39 -168 50 -215 11 -47 26 -110 34 -140 8 -31 19 -76 24
-100 5 -25 15 -65 21 -90 6 -25 16 -65 20 -90 5 -25 16 -79 25 -120 25 -122
55 -293 55 -317 0 -13 5 -23 10 -23 6 0 10 -19 10 -42 0 -24 10 -106 21 -183
21 -141 42 -619 28 -640 -12 -19 -21 -215 -9 -215 5 0 10 -18 10 -40 0 -45
-19 -56 -21 -12 -2 25 -2 25 -6 3 -3 -13 0 -28 6 -34 16 -16 13 -67 -4 -101
-8 -15 -15 -32 -15 -37 0 -4 -25 -60 -55 -124 -30 -63 -55 -119 -55 -124 0 -5
-3 -11 -7 -13 -10 -4 -73 -94 -73 -104 0 -4 -17 -28 -38 -53 -21 -25 -53 -70
-72 -98 -18 -29 -37 -53 -42 -53 -5 0 -6 -4 -3 -10 3 -6 -1 -7 -9 -4 -11 4
-16 0 -16 -10 0 -10 -67 -84 -150 -167 -82 -82 -146 -149 -141 -149 16 0 423
410 538 542 216 246 413 532 643 928 24 41 55 95 70 120 15 25 54 95 86 155
32 61 78 146 102 190 68 127 384 768 448 909 51 113 59 126 71 110 7 -9 23
-29 35 -43 63 -71 68 -82 68 -145 0 -146 74 -977 95 -1072 8 -34 28 -88 46
-120 32 -59 118 -195 129 -204 3 -3 17 -20 30 -39 13 -19 37 -50 54 -69 62
-68 293 -298 335 -332 24 -19 51 -43 60 -52 8 -10 20 -18 27 -18 6 0 17 -11
24 -25 7 -14 19 -25 25 -25 7 0 33 -18 58 -40 25 -22 48 -40 51 -40 4 0 17
-10 30 -22 38 -37 66 -58 76 -58 6 0 10 -4 10 -8 0 -4 18 -19 40 -32 22 -14
40 -28 40 -32 0 -5 6 -8 13 -8 8 0 24 -11 37 -25 13 -14 30 -25 37 -25 8 0 16
-7 19 -15 4 -8 10 -15 15 -15 6 0 33 -17 62 -38 29 -21 64 -44 78 -51 14 -7
41 -26 60 -42 19 -16 37 -29 42 -29 4 0 26 -13 49 -30 22 -16 47 -30 55 -30 7
0 13 -4 13 -10 0 -5 7 -10 15 -10 8 0 15 -4 15 -8 0 -5 20 -19 45 -31 25 -12
45 -27 45 -33 0 -6 11 -8 24 -6 19 4 22 1 18 -16 -3 -12 -2 -18 2 -14 10 9
106 -40 113 -58 3 -8 9 -11 14 -8 7 4 -37 71 -61 94 -3 3 -16 20 -29 38 -18
26 -26 31 -33 20 -8 -10 -9 -9 -4 4 3 10 -1 24 -9 32 -8 7 -22 27 -32 44 -10
17 -45 70 -77 119 -33 48 -72 111 -88 138 -38 70 -188 374 -188 383 0 4 -7 20
-15 36 -22 43 -118 306 -154 421 -41 134 -101 377 -101 407 0 28 73 118 95
118 7 0 15 4 17 8 4 13 123 92 137 92 6 0 11 4 11 8 0 14 201 105 340 155 298
107 538 160 1032 227 81 11 157 24 170 29 30 12 17 13 -61 1 -100 -14 -544 17
-716 50 -27 5 -99 19 -160 31 -152 29 -277 62 -365 98 -41 16 -140 55 -220 86
-361 140 -742 366 -996 590 -93 82 -254 246 -317 324 -36 44 -163 153 -420
360 -441 354 -467 374 -473 368 -2 -2 4 -28 15 -58 11 -30 37 -112 59 -184 22
-71 58 -188 81 -260 23 -71 41 -134 41 -138 0 -4 -15 3 -32 16 -18 13 -40 27
-48 31 -8 3 -37 20 -65 36 -27 17 -61 36 -75 43 -14 6 -29 15 -35 20 -22 17
-87 58 -132 83 -65 36 -217 125 -333 194 -264 158 -387 230 -393 230 -4 0 -7
-13 -7 -30z"/>
<path d="M12650 16474 c-100 -15 -185 -42 -243 -76 -54 -32 -58 -33 -54 -16 1
6 -7 14 -18 16 -17 4 -18 2 -6 -12 8 -9 12 -18 10 -20 -19 -15 -105 -70 -106
-68 -2 1 -3 -1 -3 -5 0 -5 -23 -31 -51 -59 -43 -43 -50 -56 -44 -75 4 -13 11
-26 14 -29 3 -3 19 -32 36 -65 25 -51 57 -109 112 -200 6 -11 21 -38 32 -60
12 -22 32 -58 45 -80 14 -22 38 -66 53 -97 15 -32 31 -58 36 -58 4 0 7 17 7
37 0 53 11 34 12 -21 0 -30 5 -46 13 -46 20 0 26 28 10 44 -8 8 -15 26 -15 40
0 14 -4 26 -9 26 -5 0 -14 15 -21 33 -14 36 -186 382 -219 440 -35 62 -36 59
114 155 60 37 186 94 249 111 129 35 123 35 140 -1 9 -17 16 -37 16 -45 0 -8
13 -42 29 -76 16 -34 35 -79 42 -99 7 -21 17 -38 21 -38 4 0 8 -9 8 -20 0 -11
4 -28 9 -38 9 -17 26 -56 55 -124 8 -21 20 -38 27 -38 6 0 9 -7 5 -17 -6 -16
-5 -16 8 0 8 10 17 14 20 9 3 -5 -1 -15 -9 -22 -8 -7 -15 -20 -15 -29 1 -13 3
-13 15 3 13 17 15 17 15 3 0 -9 8 -20 17 -26 10 -5 14 -13 10 -17 -5 -5 -12
-2 -17 6 -5 8 -12 11 -15 8 -9 -9 2 -26 27 -39 13 -7 18 -7 14 -1 -3 6 -2 13
4 17 5 3 10 1 10 -6 0 -7 3 -9 7 -6 3 4 -1 15 -9 24 -8 10 -25 47 -38 83 -13
36 -31 83 -41 105 -20 47 -157 386 -173 430 -22 60 -14 58 -136 39z"/>
<path d="M9108 13660 c-66 -11 -153 -45 -219 -86 -111 -67 -233 -225 -269
-349 -28 -98 -27 -169 11 -1310 55 -1652 54 -1638 77 -1716 45 -158 171 -312
312 -381 158 -78 37 -72 1533 -76 l1337 -3 0 -72 c0 -40 11 -560 25 -1157 14
-597 47 -2071 75 -3276 47 -2075 51 -2194 70 -2269 63 -248 288 -453 540 -494
44 -7 925 -11 2758 -11 l2694 0 -6 -28 c-28 -133 -87 -549 -120 -842 -54 -478
-79 -1249 -50 -1537 l5 -53 1538 0 1537 0 13 53 c7 28 12 64 12 80 0 15 4 27
9 27 6 0 10 11 10 25 0 28 48 302 57 325 6 16 8 30 11 68 1 14 6 21 13 16 7
-4 9 0 5 13 -3 10 0 43 8 73 7 30 17 78 21 105 4 28 14 75 22 105 8 30 25 94
37 143 21 82 36 103 36 50 0 -16 -4 -22 -11 -17 -9 5 -10 -3 -5 -30 4 -23 3
-36 -4 -36 -5 0 -10 -11 -10 -25 0 -14 -5 -25 -11 -25 -6 0 -8 -11 -5 -28 4
-15 1 -43 -5 -62 -22 -70 -41 -156 -41 -185 0 -26 -1 -27 -9 -10 -7 16 -8 14
-5 -12 6 -37 -8 -93 -26 -105 -11 -6 -11 -10 0 -16 9 -6 10 -16 3 -38 -6 -16
-22 -99 -36 -184 -14 -85 -33 -180 -41 -211 -28 -108 -48 -99 219 -99 l234 0
23 78 c12 42 28 100 36 127 7 28 22 82 32 120 11 39 42 153 70 255 28 102 70
253 92 335 48 172 75 269 194 705 160 582 178 645 192 700 8 30 23 84 34 120
11 36 26 90 34 120 34 130 249 913 271 985 12 42 68 249 95 350 8 31 36 130
165 595 42 151 86 309 96 350 42 157 90 326 98 346 5 12 20 24 33 27 13 3 59
15 103 26 44 11 128 28 186 37 126 18 245 7 318 -29 50 -25 35 12 162 -407
253 -833 436 -1456 538 -1837 317 -1184 501 -1947 641 -2663 21 -107 44 -228
51 -268 l12 -72 269 0 c305 0 278 -10 254 94 -8 34 -22 110 -31 169 -9 60 -22
128 -29 150 -7 23 -11 60 -9 82 3 28 1 36 -5 26 -8 -11 -10 -9 -11 10 -2 43
-8 85 -13 95 -14 25 -17 61 -4 61 11 0 50 -151 61 -242 2 -16 8 -43 14 -59 6
-16 9 -45 5 -65 -3 -21 -2 -31 3 -24 8 11 13 -14 38 -172 2 -11 9 -44 16 -72
l14 -53 1671 0 1670 0 -7 47 c-74 504 -200 1139 -359 1808 -54 230 -62 259
-71 290 -8 25 -146 539 -169 630 -12 48 -79 283 -105 370 -88 294 -149 498
-165 545 -10 30 -35 109 -55 175 -70 223 -253 768 -355 1055 -56 157 -108 305
-117 330 -40 116 -265 708 -298 785 -7 17 -43 107 -80 200 -63 157 -109 270
-186 451 l-31 71 25 49 c43 86 58 195 35 251 -35 82 -201 215 -420 337 l-68
38 0 160 c0 173 -2 177 -49 88 -13 -25 -29 -52 -35 -60 -11 -15 -21 -32 -57
-98 -55 -100 -44 -92 -200 -145 -150 -50 -631 -176 -779 -203 -221 -40 -395
-68 -530 -84 -236 -29 -339 -40 -460 -49 -717 -57 -1420 -36 -2160 64 -58 8
-143 19 -190 25 -47 6 -116 17 -155 24 -38 8 -107 20 -152 26 l-83 12 0 150 0
150 28 -6 c15 -3 126 -20 247 -37 831 -115 1659 -140 2480 -74 347 28 848 93
1070 140 39 8 131 26 205 40 74 14 198 41 275 59 77 19 155 37 173 41 18 4 31
9 29 11 -4 4 -74 -2 -427 -36 -138 -13 -640 -46 -955 -62 -339 -18 -1575 -17
-1870 0 -318 19 -692 49 -825 66 -63 8 -184 23 -269 32 l-153 18 6 196 c4 107
9 271 12 363 l6 168 62 -6 c33 -4 93 -13 131 -20 153 -30 485 -58 675 -59 164
0 210 9 210 42 0 18 -121 142 -139 142 -5 0 -11 4 -13 9 -7 19 -257 154 -621
336 -154 76 -281 145 -284 152 -3 8 -1 184 4 391 9 362 4 491 -21 552 -5 12 1
15 28 15 20 0 32 -4 29 -11 -2 -6 9 -14 26 -17 16 -4 50 -16 75 -28 25 -12 53
-18 61 -15 9 3 13 2 10 -4 -3 -6 0 -12 7 -14 64 -18 167 -50 183 -57 11 -5 38
-13 60 -19 22 -5 83 -21 135 -35 116 -32 202 -50 340 -70 58 -8 146 -22 195
-30 359 -59 960 -42 1566 44 258 37 725 144 834 190 11 5 56 21 100 36 107 37
273 108 365 158 142 75 207 113 220 127 3 3 31 23 64 45 78 53 235 206 218
212 -7 3 -45 -14 -85 -37 -73 -43 -408 -210 -421 -210 -3 0 -25 -9 -49 -19
-59 -28 -108 -47 -217 -87 -378 -140 -702 -217 -1092 -261 -180 -20 -594 -22
-733 -4 -49 6 -108 13 -130 15 -22 2 -47 6 -55 9 -8 3 -49 11 -90 17 -123 18
-483 109 -555 140 -11 5 -63 23 -115 41 -52 18 -96 37 -98 41 -2 4 -10 8 -18
8 -18 0 -107 37 -229 94 -49 24 -105 49 -122 57 -18 8 -33 17 -33 21 0 5 -6 8
-14 8 -8 0 -46 18 -84 40 -44 26 -79 39 -94 37 -13 -2 -17 -2 -10 0 19 7 14
19 -13 31 -14 6 -25 16 -25 22 0 5 -10 10 -21 10 -12 0 -45 15 -73 33 -28 19
-76 50 -107 70 -31 21 -61 37 -68 37 -6 0 -11 4 -11 9 0 5 -24 24 -52 42 -29
18 -57 39 -61 46 -4 7 -15 13 -22 13 -8 0 -15 5 -15 10 0 6 -6 10 -13 10 -8 0
-19 10 -26 23 -7 13 -27 29 -44 37 -18 7 -35 15 -39 18 -5 2 -8 -4 -8 -13 0
-14 -3 -15 -14 -6 -10 8 -16 9 -21 1 -9 -15 -35 -12 -29 4 3 8 1 17 -5 21 -8
4 -11 -49 -11 -174 0 -165 2 -181 18 -182 9 0 2 -5 -17 -10 -31 -10 -32 -11
-15 -24 11 -8 24 -15 30 -15 16 0 64 -24 64 -32 0 -11 -14 -10 -26 1 -14 14
-104 43 -148 48 -22 2 -47 8 -55 12 -9 4 -403 4 -876 0 -1187 -10 -6163 -11
-6169 -1 -4 7 27 1114 65 2284 14 405 11 452 -33 559 -72 178 -216 310 -411
376 -49 17 -168 18 -2262 19 -1215 1 -2231 -2 -2257 -6z m4547 -64 c99 -41
161 -83 226 -154 61 -65 107 -142 136 -225 16 -45 18 -83 16 -292 -2 -222 -44
-1665 -60 -2030 -4 -88 -6 -173 -6 -190 2 -70 -9 -165 -19 -159 -7 5 -9 40 -5
100 4 66 2 94 -6 97 -8 3 -13 -15 -15 -55 -1 -36 -8 -65 -17 -75 -12 -11 -15
-11 -15 -1 0 10 -3 9 -10 -2 -9 -13 -10 -13 -10 0 0 13 -1 13 -10 0 -9 -13
-10 -13 -10 0 0 13 -1 13 -10 0 -9 -13 -10 -13 -10 0 0 13 -1 13 -10 0 -9 -13
-10 -13 -10 0 0 13 -1 13 -10 0 -9 -13 -10 -13 -10 0 0 13 -1 13 -10 0 -9 -13
-10 -13 -10 0 0 13 -1 13 -10 0 -9 -13 -10 -13 -10 0 0 13 -1 13 -10 0 -9 -13
-10 -13 -10 0 0 13 -1 13 -10 0 -9 -13 -10 -13 -10 0 0 13 -1 13 -10 0 -9 -13
-10 -13 -10 0 0 13 -1 13 -10 0 -9 -13 -10 -13 -10 0 0 13 -1 13 -10 0 -9 -13
-10 -13 -10 0 0 13 -1 13 -10 0 -9 -13 -10 -13 -10 0 0 13 -1 13 -10 0 -9 -13
-10 -13 -10 0 0 13 -1 13 -10 0 -9 -13 -10 -13 -10 0 0 13 -1 13 -10 0 -9 -13
-10 -13 -10 0 0 13 -1 13 -10 0 -9 -13 -10 -13 -10 0 0 13 -1 13 -10 0 -9 -13
-10 -13 -10 0 0 13 -1 13 -10 0 -9 -13 -10 -13 -10 0 0 13 -1 13 -10 0 -9 -13
-10 -13 -10 0 0 13 -1 13 -10 0 -9 -13 -10 -13 -10 0 0 13 -1 13 -10 0 -9 -13
-10 -13 -10 0 0 13 -1 13 -10 0 -9 -13 -10 -13 -10 0 0 13 -1 13 -10 0 -9 -13
-10 -13 -10 0 0 13 -1 13 -10 0 -9 -13 -10 -13 -10 0 0 13 -1 13 -10 0 -9 -13
-10 -13 -10 0 0 13 -1 13 -10 0 -9 -13 -10 -13 -10 0 0 13 -1 13 -10 0 -9 -13
-10 -13 -10 0 0 13 -1 13 -10 0 -9 -13 -10 -13 -10 0 0 13 -1 13 -10 0 -9 -13
-10 -13 -10 0 0 13 -1 13 -10 0 -9 -13 -10 -13 -10 0 0 13 -1 13 -10 0 -9 -13
-10 -13 -10 0 0 13 -1 13 -10 0 -9 -13 -10 -13 -10 0 0 13 -1 13 -10 0 -9 -13
-10 -13 -10 0 0 13 -1 13 -10 0 -9 -13 -10 -13 -10 0 0 13 -1 13 -10 0 -9 -13
-10 -13 -10 0 0 13 -1 13 -10 0 -9 -13 -10 -13 -10 0 0 13 -1 13 -10 0 -9 -13
-10 -13 -10 0 0 13 -1 13 -10 0 -9 -13 -10 -13 -10 0 0 13 -1 13 -10 0 -9 -13
-10 -13 -10 0 0 13 -1 13 -10 0 -9 -13 -10 -13 -10 0 0 13 -1 13 -10 0 -9 -13
-10 -13 -10 0 0 13 -1 13 -10 0 -9 -13 -10 -13 -10 0 0 13 -1 13 -10 0 -9 -13
-10 -13 -10 0 0 13 -1 13 -10 0 -9 -13 -10 -13 -10 0 0 13 -1 13 -10 0 -9 -13
-10 -13 -10 0 0 13 -1 13 -10 0 -9 -13 -10 -13 -10 0 0 13 -1 13 -10 0 -9 -13
-10 -13 -10 0 0 13 -1 13 -10 0 -9 -13 -10 -13 -10 0 0 13 -1 13 -10 0 -9 -13
-10 -13 -10 0 0 13 -1 13 -10 0 -9 -13 -10 -13 -10 0 0 13 -1 13 -10 0 -9 -13
-10 -13 -10 0 0 13 -1 13 -10 0 -9 -13 -10 -13 -10 0 0 13 -1 13 -10 0 -9 -13
-10 -13 -10 0 0 13 -1 13 -10 0 -9 -13 -10 -13 -10 0 0 13 -1 13 -10 0 -9 -13
-10 -13 -10 0 0 13 -1 13 -10 0 -9 -13 -10 -13 -10 0 0 13 -1 13 -10 0 -9 -13
-10 -13 -10 0 0 13 -1 13 -10 0 -9 -13 -10 -13 -10 0 0 13 -1 13 -10 0 -9 -13
-10 -13 -10 0 0 13 -1 13 -10 0 -9 -13 -10 -13 -10 0 0 13 -1 13 -10 0 -9 -13
-10 -13 -10 0 0 13 -1 13 -10 0 -9 -13 -10 -13 -10 0 0 13 -1 13 -10 0 -9 -13
-10 -13 -10 0 0 13 -1 13 -10 0 -9 -13 -10 -13 -10 0 0 13 -1 13 -10 0 -9 -13
-10 -13 -10 0 0 13 -1 13 -10 0 -9 -13 -10 -13 -10 0 0 13 -1 13 -10 0 -9 -13
-10 -13 -10 0 0 13 -1 13 -10 0 -9 -13 -10 -13 -10 0 0 13 -1 13 -10 0 -9 -13
-10 -13 -10 0 0 13 -1 13 -10 0 -9 -13 -10 -13 -10 0 0 13 -1 13 -10 0 -9 -13
-10 -13 -10 0 0 13 -1 13 -10 0 -9 -13 -10 -13 -10 0 0 13 -1 13 -10 0 -9 -13
-10 -13 -10 0 0 13 -1 13 -10 0 -9 -13 -10 -13 -10 0 0 13 -1 13 -10 0 -9 -13
-10 -13 -10 0 0 13 -1 13 -10 0 -9 -13 -10 -13 -10 0 0 13 -1 13 -10 0 -8 -12
-10 -12 -10 -1 0 11 -3 11 -17 0 -10 -9 -18 -10 -20 -4 -2 6 -19 10 -38 9 -19
-1 -33 2 -30 7 3 4 12 6 20 2 10 -3 15 1 15 15 0 11 8 22 20 25 21 5 28 27 9
27 -8 0 -7 5 1 15 7 9 11 17 8 20 -4 4 -44 -38 -40 -42 9 -12 -2 -23 -17 -18
-11 3 -23 0 -27 -6 -5 -9 -2 -10 12 -6 19 7 19 7 0 -8 -10 -8 -22 -12 -27 -10
-4 3 -14 -3 -21 -13 -7 -11 -24 -23 -37 -27 -23 -7 -24 -5 -18 24 4 18 2 31
-3 31 -6 0 -10 -8 -10 -19 0 -10 -7 -24 -15 -31 -14 -12 -18 -9 -12 8 1 4 5 6
10 5 4 -2 7 36 7 84 0 103 -8 108 -11 5 -2 -70 -2 -72 -25 -66 -18 5 -24 2
-24 -9 0 -10 -8 -15 -20 -14 -22 1 -28 23 -8 29 7 3 8 10 4 17 -6 9 -14 1 -26
-25 -10 -22 -19 -32 -19 -24 -1 13 -2 13 -11 0 -9 -13 -10 -13 -10 0 0 13 -1
13 -10 0 -9 -13 -10 -13 -10 0 0 13 -1 13 -10 0 -9 -13 -10 -13 -10 0 0 13 -1
13 -10 0 -9 -13 -10 -13 -10 0 0 13 -1 13 -10 0 -9 -13 -10 -13 -10 0 0 13 -1
13 -10 0 -9 -13 -10 -13 -10 0 0 13 -1 13 -10 0 -9 -13 -10 -13 -10 0 0 13 -1
13 -10 0 -9 -13 -10 -13 -10 0 0 13 -1 13 -10 0 -9 -13 -10 -13 -10 0 0 13 -1
13 -10 0 -9 -13 -10 -13 -10 0 0 13 -1 13 -10 0 -9 -13 -10 -13 -10 0 0 13 -1
13 -10 0 -9 -13 -10 -13 -10 0 0 13 -1 13 -10 0 -9 -13 -10 -13 -10 0 0 13 -1
13 -10 0 -9 -13 -10 -13 -10 0 0 13 -1 13 -10 0 -9 -13 -10 -13 -10 0 0 13 -1
13 -10 0 -9 -13 -10 -13 -10 0 0 13 -1 13 -10 0 -9 -13 -10 -13 -10 0 0 13 -1
13 -10 0 -9 -13 -10 -13 -10 0 0 13 -1 13 -10 0 -9 -13 -10 -13 -10 0 0 13 -1
13 -10 0 -9 -13 -10 -13 -10 0 0 13 -1 13 -10 0 -9 -13 -10 -13 -10 0 0 13 -1
13 -10 0 -9 -13 -10 -13 -10 0 0 13 -1 13 -10 0 -9 -13 -10 -13 -10 0 0 13 -1
13 -10 0 -9 -13 -10 -13 -10 0 0 13 -1 13 -10 0 -9 -13 -10 -13 -10 0 0 13 -1
13 -10 0 -9 -13 -10 -13 -10 0 0 13 -1 13 -10 0 -9 -13 -10 -13 -10 0 0 13 -1
13 -10 0 -9 -13 -10 -13 -10 0 0 13 -1 13 -10 0 -7 -11 -10 -12 -10 -2 0 10
-4 10 -16 -2 -17 -17 -50 -21 -56 -7 -1 5 -19 11 -38 13 l-35 5 -2 -44 c-2
-37 1 -43 17 -43 17 0 20 -7 20 -54 0 -35 5 -58 15 -66 49 -41 77 -40 -1240
-40 l-1255 0 -2 -32 -1 -33 -4 33 c-5 36 -22 44 -24 10 l-2 -23 -4 23 c-2 12
-9 22 -15 22 -5 0 -7 -7 -4 -16 3 -9 6 -27 6 -40 0 -27 20 -34 21 -6 0 12 3
10 10 -7 5 -13 8 -29 5 -35 -2 -6 -5 -3 -5 7 -2 35 -21 6 -21 -31 0 -24 3 -32
9 -24 7 11 9 10 14 -3 4 -9 3 -13 -3 -10 -13 8 -13 -7 0 -39 6 -17 6 -26 0
-26 -6 0 -10 2 -10 4 0 2 -7 33 -16 67 -30 118 -31 135 -54 839 -12 338 -30
869 -41 1180 -11 311 -23 632 -25 714 -7 175 8 256 64 368 67 136 214 255 367
299 56 17 200 18 2290 16 l2230 -2 70 -29z m4665 -4631 l0 -95 -2125 -2 -2125
-3 0 100 0 100 2125 -3 2125 -2 0 -95z m-2118 -442 l-3 -98 -1065 3 -1064 2 0
95 0 95 1068 0 1067 0 -3 -97z m-4 -278 c1 -3 2 -47 2 -97 l0 -93 -1065 3
-1065 2 0 98 0 97 1062 -2 c585 -2 1064 -5 1066 -8z m1924 -92 l-3 -98 -844 0
-844 0 -3 97 -3 98 845 2 c465 2 847 2 850 1 3 0 4 -45 2 -100z m-624 -368 l3
-95 -1716 0 -1715 0 0 98 0 97 1712 -2 1713 -3 3 -95z m-2200 -370 l3 -95
-615 0 -615 0 -3 90 c-2 50 -2 94 -1 98 2 4 279 6 615 5 l613 -3 3 -95z m2594
-357 c0 -51 -1 -97 -1 -103 -1 -7 -645 -10 -1911 -10 l-1910 0 0 102 0 103
1908 2 c1049 2 1909 2 1911 1 2 -1 3 -44 3 -95z m-878 -373 l-1 -95 -1472 -3
c-809 -1 -1471 1 -1471 6 -1 9 -1 186 0 190 0 1 663 1 1472 -1 l1473 -2 -1
-95z m-1553 -280 c1 -5 0 -45 -1 -89 -1 -57 2 -81 12 -87 7 -5 9 -9 3 -9 -158
-3 -1405 -3 -1405 0 -1 11 -1 176 -1 185 1 7 240 10 696 10 456 0 695 -3 696
-10z m2190 0 c0 -5 1 -49 1 -98 l0 -87 -1062 0 c-585 0 -1065 2 -1068 5 -3 3
0 5 6 5 7 0 11 29 11 83 0 45 0 87 0 92 1 7 360 10 1056 10 696 0 1055 -3
1056 -10z m-1451 -365 c1 -3 1 -47 2 -98 l1 -92 -1067 -3 c-586 -1 -1067 1
-1068 5 -2 4 -2 49 0 100 l3 93 1065 0 c585 0 1064 -2 1064 -5z m-1250 -360
c0 -7 374 -10 1103 -10 l1102 0 0 -95 c0 -52 -2 -95 -5 -95 -3 0 -504 0 -1113
-1 l-1108 0 0 93 c0 51 0 99 0 106 1 14 21 17 21 2z m-256 -104 c0 -53 -2 -96
-6 -96 -100 -3 -632 1 -636 5 -3 3 0 5 7 5 9 0 12 23 11 88 -1 48 -2 89 -1 92
1 3 141 4 312 3 l312 -2 1 -95z m789 -267 c16 -1 17 -3 6 -6 -10 -2 -19 -13
-22 -23 -6 -23 -2 -125 7 -165 3 -17 3 -22 -1 -13 -8 17 -52 18 -706 15 -383
-1 -697 1 -697 6 0 4 -7 7 -15 7 -12 0 -15 15 -13 83 l2 82 6 -80 c7 -93 10
-89 13 18 l2 78 687 -1 c528 0 688 3 694 12 6 9 9 9 12 0 2 -7 13 -13 25 -13z
m1135 1 c795 0 1002 3 1002 13 0 8 4 7 10 -3 8 -12 10 -12 10 -1 0 8 3 11 6 8
9 -9 11 -206 2 -220 -6 -9 -8 -9 -8 1 0 9 -212 12 -1025 12 -969 0 -1025 -1
-1026 -17 -1 -16 -2 -16 -6 0 -3 13 -11 17 -23 14 -25 -6 -28 5 -22 81 3 36 1
62 -5 62 -12 0 -11 42 2 56 6 7 22 8 45 3 19 -5 486 -9 1038 -9z m-4418 -460
l120 0 0 40 0 40 80 0 80 0 0 -40 0 -40 80 0 80 0 0 -40 0 -40 200 0 200 0 0
40 0 40 40 0 40 0 0 -40 0 -40 80 0 80 0 0 -40 0 -40 200 0 200 0 0 40 0 40
40 0 40 0 0 -40 0 -40 80 0 80 0 0 -40 c0 -33 3 -40 19 -40 11 0 23 5 26 10
13 21 36 9 42 -22 7 -33 7 -33 15 -8 6 22 7 21 4 -8 -1 -18 1 -35 6 -38 4 -3
8 8 8 25 0 35 19 53 21 19 1 -17 3 -18 6 -5 4 16 25 17 281 15 204 -1 247 -4
162 -8 l-115 -6 133 -2 c120 -2 132 0 132 16 1 16 1 16 14 0 7 -10 21 -18 30
-18 9 0 16 -5 16 -11 0 -5 -4 -7 -10 -4 -5 3 -10 0 -10 -7 0 -7 -2 -52 -3
-100 -1 -52 2 -83 7 -78 5 5 9 46 8 92 -1 46 1 77 4 71 4 -9 32 -13 91 -13
l85 0 -4 -50 c-1 -28 0 -50 5 -50 4 0 7 25 7 55 0 30 -3 55 -7 55 -7 0 -9 49
-3 68 5 16 18 -56 19 -110 0 -32 4 -58 9 -58 4 0 5 23 3 51 -4 60 8 133 18
107 6 -17 68 -18 1109 -15 606 1 1102 0 1103 -3 0 -3 1 -47 2 -98 2 -101 -4
-125 -25 -104 -9 9 -130 12 -533 11 -290 -1 -498 -5 -470 -9 28 -5 119 -9 203
-9 l152 -1 0 -40 0 -40 160 0 160 0 0 40 0 40 80 0 80 0 0 -40 0 -40 80 0 80
0 0 -40 0 -40 160 0 160 0 0 40 0 40 80 0 80 0 0 -40 0 -40 80 0 80 0 0 -40 0
-40 160 0 160 0 0 40 0 40 80 0 80 0 0 -40 0 -40 79 0 78 0 6 -37 c4 -22 2
-39 -3 -41 -6 -2 -10 -11 -10 -21 0 -9 -7 -26 -15 -38 -9 -13 -11 -23 -5 -25
7 -2 7 -13 1 -33 -13 -41 -28 -99 -42 -165 -6 -30 -15 -64 -19 -75 -10 -24
-37 -134 -70 -280 -30 -134 -40 -181 -60 -275 -11 -58 -25 -121 -30 -140 -21
-79 -40 -171 -55 -265 -9 -55 -21 -108 -26 -117 -5 -10 -9 -32 -9 -49 0 -16
-5 -39 -10 -50 -11 -19 -51 -19 -2703 -19 -2173 1 -2704 3 -2752 14 -70 15
-204 75 -245 110 -16 13 -35 26 -42 28 -10 4 -10 9 2 24 14 18 14 18 -3 5 -16
-13 -21 -11 -45 15 -74 81 -131 180 -151 259 -7 28 -16 66 -21 85 -15 59 -33
877 -21 967 4 29 4 50 1 48 -9 -6 -20 99 -20 189 0 53 3 67 11 56 9 -12 10
-12 5 3 -12 38 -17 72 -9 60 10 -14 8 174 -2 200 -4 10 -3 23 4 30 6 6 11 43
11 86 0 91 -6 90 -14 -3 -8 -98 -16 -94 -16 7 0 71 3 87 15 87 12 0 15 21 17
123 2 99 3 106 5 40 l4 -83 119 0z m1826 110 c0 -14 2 -63 4 -110 l4 -85 6 85
6 85 2 -85 c1 -47 5 -94 8 -105 5 -20 12 -20 1061 -17 581 1 1055 0 1052 -2
-2 -2 -473 -6 -1046 -8 -574 -1 -1043 -6 -1043 -10 0 -5 343 -9 763 -10 l762
-3 -602 -2 c-391 -2 -603 -7 -603 -13 0 -13 -157 -13 -162 0 -1 5 -49 10 -106
11 -56 1 -105 6 -109 12 -3 5 -9 3 -14 -4 -5 -8 -5 3 -1 26 9 51 9 198 0 248
-5 30 -4 35 6 25 7 -7 12 -24 12 -38z m54 30 c0 -7 349 -9 1050 -8 578 2 1050
0 1050 -5 0 -4 -477 -6 -1060 -5 -1019 3 -1060 2 -1066 -15 -3 -10 -8 -16 -12
-13 -7 8 19 56 30 56 4 0 8 -5 8 -10z m2122 -144 l0 -101 -1068 1 -1069 0 -3
94 c-1 51 -1 99 2 106 4 10 215 12 1072 7 l1066 -5 0 -102z"/>
<path d="M12378 10703 c-8 -10 154 -13 766 -13 510 0 776 3 776 10 0 16 -1529
19 -1542 3z"/>
<path d="M11200 10700 c0 -7 153 -10 440 -10 287 0 440 3 440 10 0 7 -153 10
-440 10 -287 0 -440 -3 -440 -10z"/>
<path d="M21840 12130 c0 -13 -7 -20 -19 -20 -11 0 -22 -4 -26 -10 -3 -5 -12
-7 -20 -3 -8 3 -15 1 -15 -4 0 -5 6 -10 13 -11 98 -14 120 -32 37 -32 l-50 0
0 -50 c0 -27 -4 -50 -10 -50 -5 0 -10 5 -10 10 0 6 -7 10 -16 10 -13 0 -11 -6
9 -26 25 -25 27 -54 4 -54 -7 0 5 -11 25 -25 43 -29 65 -34 29 -6 -27 20 -21
47 7 32 9 -4 23 -6 31 -3 9 3 11 -1 6 -17 -5 -15 -2 -21 9 -21 9 0 16 -4 16
-9 0 -5 3 -17 7 -26 5 -15 3 -16 -15 -6 -32 17 -27 8 11 -19 21 -16 27 -18 17
-6 -13 17 -12 18 5 14 11 -2 20 -11 20 -20 0 -9 4 -20 8 -24 4 -4 7 4 7 19 0
17 -7 28 -20 32 -11 3 -20 15 -20 26 0 12 7 19 20 19 11 0 20 5 20 10 0 6 -13
10 -30 10 -16 0 -30 5 -30 10 0 6 43 10 109 10 84 0 113 3 125 15 8 8 17 15
20 15 3 0 6 -7 6 -15 0 -8 -9 -15 -20 -15 -18 0 -20 -7 -20 -78 0 -75 -1 -77
-29 -90 -20 -9 -36 -10 -55 -2 -69 26 -47 3 32 -34 17 -8 32 -20 32 -26 0 -16
51 -33 64 -20 5 5 17 10 26 10 11 -1 10 -4 -5 -12 -11 -6 -21 -12 -23 -13 -6
-5 49 -55 59 -55 11 0 96 -45 117 -63 14 -11 57 -34 277 -147 112 -57 146 -70
170 -66 21 4 26 3 15 -3 -8 -6 -12 -12 -10 -14 9 -8 140 -67 148 -67 15 0 62
-25 62 -32 0 -5 7 -8 15 -8 17 0 152 -43 198 -64 109 -48 435 -137 677 -185
52 -11 107 -22 123 -26 47 -12 29 10 -20 24 -42 13 -257 97 -353 138 -19 9
-102 48 -185 89 -82 40 -161 78 -175 83 -14 6 -56 28 -95 49 -38 21 -99 54
-135 74 -70 38 -185 107 -204 123 -7 6 -31 21 -55 34 -32 17 -45 20 -51 11 -5
-8 -10 -9 -14 -2 -3 6 -1 12 5 14 6 2 -18 23 -55 46 -36 24 -69 48 -73 55 -5
7 -33 25 -63 41 -30 16 -86 55 -125 86 -87 70 -135 103 -135 94 0 -3 -15 10
-33 30 -35 38 -53 47 -43 20 3 -9 2 -12 -4 -9 -6 4 -9 12 -8 18 3 12 -69 87
-83 87 -4 0 -9 -6 -12 -12 -2 -7 -8 -9 -13 -5 -5 4 -2 12 6 17 11 7 12 12 4
20 -8 8 -17 4 -33 -16 -24 -30 -29 -11 -6 23 13 19 13 22 -1 27 -10 4 -13 2
-8 -6 5 -8 2 -9 -10 -5 -10 4 -28 10 -41 13 -26 6 -48 54 -38 80 5 14 3 14
-16 3 -17 -11 -25 -11 -41 -1 -18 11 -20 10 -20 -8z"/>
<path d="M15040 11628 c-303 -255 -562 -470 -622 -519 -16 -13 -17 -17 -6 -27
11 -9 29 1 84 46 55 44 412 342 530 441 11 10 102 87 203 171 165 139 193 169
165 176 -5 2 -164 -128 -354 -288z"/>
<path d="M26135 11393 c-27 -25 -164 -128 -245 -183 -36 -25 -67 -48 -70 -51
-8 -9 -209 -144 -264 -177 -16 -9 -47 -31 -70 -47 -49 -36 -184 -115 -197
-115 -5 0 -9 -4 -9 -8 0 -5 -28 -24 -62 -41 -35 -18 -73 -45 -86 -59 -13 -15
-20 -21 -16 -13 6 11 3 13 -12 7 -10 -5 -28 -11 -39 -14 -11 -3 -24 -11 -30
-19 -5 -7 -32 -24 -60 -38 l-50 -25 40 6 c22 4 44 10 50 15 5 5 12 9 16 9 4 0
8 -80 9 -178 l1 -177 -81 -19 c-44 -11 -80 -24 -80 -29 0 -5 8 -6 18 -2 9 5
32 10 50 13 18 2 35 8 38 13 3 5 20 9 39 9 35 0 55 14 33 24 -7 3 7 5 32 4 40
-1 255 65 270 83 3 3 28 14 55 25 69 26 248 119 318 165 32 22 61 39 63 39 5
0 112 77 130 94 7 6 36 32 67 58 38 33 56 57 61 80 9 42 52 287 72 403 8 50
19 102 25 117 15 38 8 53 -16 31z"/>
<path d="M27755 10790 c-3 -6 2 -18 11 -28 10 -9 126 -152 257 -317 313 -391
305 -381 319 -367 8 8 8 15 1 24 -6 7 -70 87 -143 178 -73 91 -196 245 -274
342 -77 98 -146 178 -153 178 -6 0 -15 -5 -18 -10z"/>
<path d="M31433 10579 c3 -19 13 -98 23 -176 10 -79 21 -143 25 -143 4 0 20 5
36 11 46 18 176 49 208 49 17 0 35 4 41 8 16 10 39 102 28 111 -8 7 -310 151
-353 169 -11 4 -13 -2 -8 -29z"/>
<path d="M32241 10376 c-45 -101 -81 -188 -81 -193 0 -5 10 -15 23 -22 24 -13
125 -147 144 -193 7 -15 16 -28 21 -28 5 0 29 19 53 43 80 76 220 190 225 184
3 -3 21 -79 39 -169 39 -193 63 -308 75 -362 5 -21 6 -43 4 -50 -3 -6 -64 -47
-137 -92 l-132 -81 -3 -59 c-3 -67 -30 -316 -38 -354 -5 -24 -2 -26 53 -37 32
-7 93 -17 136 -24 87 -13 85 -8 46 -98 -10 -24 -19 -48 -19 -53 0 -6 -6 -24
-14 -41 -19 -44 -38 -96 -81 -212 -20 -55 -45 -121 -56 -147 -10 -26 -19 -58
-19 -72 0 -14 -4 -26 -10 -26 -5 0 -12 -11 -16 -25 -8 -30 -8 -30 -64 5 -25
16 -75 44 -112 64 l-67 35 -18 -27 c-11 -15 -28 -44 -38 -64 -11 -21 -23 -38
-27 -38 -5 0 -8 -5 -8 -11 0 -6 -13 -28 -30 -49 -16 -21 -30 -42 -30 -46 -1
-18 -77 -94 -93 -94 -9 0 -17 -5 -17 -12 0 -6 3 -8 7 -5 9 10 33 -12 33 -30 0
-8 6 -29 14 -46 16 -37 50 -137 64 -187 5 -19 13 -44 17 -55 6 -17 4 -17 -14
4 -12 13 -21 31 -21 42 0 10 -4 21 -10 24 -5 3 -10 16 -10 29 0 12 -4 26 -9
32 -5 5 -13 24 -18 43 -9 36 -33 55 -33 27 0 -9 -8 -16 -20 -16 -14 0 -20 7
-20 21 0 34 -19 59 -45 59 -22 0 -25 -4 -25 -38 l0 -39 -87 1 -88 2 -3 37 -3
37 -119 0 -119 0 -3 38 -3 37 -112 1 c-62 1 -169 2 -238 3 l-125 1 0 30 0 30
-120 0 c-73 0 -120 4 -120 10 0 6 -60 10 -160 10 l-160 0 0 40 c0 36 -2 40
-25 40 -15 0 -25 -6 -26 -15 -1 -14 -3 -22 -9 -42 -3 -14 -28 61 -29 87 -1 14
-6 32 -12 40 -8 11 -9 6 -4 -20 20 -115 63 -293 64 -265 1 11 -5 45 -13 75
-10 38 -11 59 -4 67 20 24 65 -56 52 -91 -10 -25 -24 0 -24 41 0 17 -5 35 -11
38 -16 11 -23 -3 -10 -19 7 -8 14 -57 16 -113 4 -98 27 -230 42 -243 4 -4 105
-17 223 -30 204 -22 216 -24 227 -46 8 -18 8 -21 -3 -17 -8 3 -14 12 -14 21 0
17 -32 -46 -75 -148 -15 -36 -37 -84 -48 -108 -10 -24 -17 -45 -15 -47 2 -2
51 -23 108 -45 58 -23 119 -48 135 -55 17 -7 55 -22 85 -33 30 -11 98 -36 150
-55 158 -60 561 -189 573 -184 7 2 25 55 41 116 16 61 32 114 36 116 4 2 94
-24 200 -59 l193 -63 226 170 c124 93 234 177 244 186 16 16 15 22 -18 121
-19 58 -39 114 -44 125 -5 11 -15 37 -21 57 -11 37 -10 39 33 90 38 44 77 100
142 201 9 14 24 13 140 -9 72 -13 135 -24 141 -24 10 0 43 83 169 430 31 85
66 179 77 208 11 29 19 54 17 55 -2 1 -60 29 -129 62 -69 32 -126 59 -127 60
-2 1 2 28 7 61 5 32 12 111 15 174 l7 115 136 85 c76 46 138 84 140 86 1 1 -9
57 -23 125 -47 222 -83 393 -95 444 l-11 50 -152 49 c-202 64 -237 77 -237 88
0 11 80 202 97 231 2 4 -2 9 -9 12 -195 64 -605 195 -614 195 -7 0 -48 -83
-93 -184z"/>
<path d="M36680 10333 c-95 -35 -138 -71 -176 -145 -29 -57 -33 -161 -8 -213
68 -143 231 -201 363 -130 199 109 184 386 -26 473 -49 21 -119 27 -153 15z"/>
<path d="M26446 9869 c-123 -101 -377 -240 -619 -338 -370 -150 -864 -276
-1397 -357 -52 -8 -106 -16 -120 -18 -127 -21 -363 -47 -557 -63 -77 -5 -100
-19 -35 -20 114 -1 118 -2 119 -24 1 -12 3 -23 5 -25 2 -1 55 -6 118 -9 63 -4
117 -8 120 -10 12 -6 602 14 680 24 47 5 129 13 183 16 84 5 97 4 97 -9 0 -18
17 -21 39 -7 11 7 8 11 -10 17 -20 7 -15 10 31 15 30 4 65 9 78 12 36 9 25 -6
-18 -26 l-40 -19 0 -168 0 -169 78 -4 c52 -2 39 -4 -43 -4 -173 -1 -181 -6
-20 -13 391 -17 833 -1 1085 40 36 6 92 15 125 21 139 22 275 53 275 62 0 7
-107 161 -147 212 -5 6 -24 30 -43 55 -19 25 -37 47 -40 50 -4 3 -21 28 -40
55 -19 28 -36 52 -40 55 -3 3 -28 38 -54 78 -57 87 -57 105 6 222 31 60 165
266 247 381 22 32 -1 20 -63 -32z"/>
<path d="M31523 9657 c-230 -88 -414 -334 -493 -662 -25 -105 -28 -339 -5
-430 21 -81 67 -168 116 -217 31 -31 37 -43 27 -50 -9 -6 -6 -7 8 -3 14 3 36
-3 60 -17 32 -19 53 -23 114 -22 107 0 170 7 170 19 0 6 19 18 41 29 22 10 53
29 68 42 27 23 28 26 19 66 -14 60 -13 250 1 328 33 169 115 358 207 472 60
75 122 138 136 138 21 0 -34 138 -80 198 -38 51 -56 68 -104 99 -37 23 -55 27
-133 30 -75 3 -100 -1 -152 -20z"/>
<path d="M35365 9120 c-280 -63 -499 -273 -583 -558 -21 -69 -22 -354 -4 -837
7 -170 28 -782 47 -1360 48 -1436 49 -1465 75 -1553 61 -217 205 -389 405
-488 177 -87 -118 -79 2885 -79 l2665 0 79 23 c264 76 453 255 535 507 16 50
32 108 35 130 4 22 13 261 21 530 8 270 31 1002 50 1629 19 626 35 1197 35
1270 0 154 -16 236 -63 339 -114 247 -320 408 -581 456 -42 8 -871 11 -2790
10 -2599 -1 -2735 -2 -2811 -19z m5526 -21 c275 -28 491 -174 608 -413 82
-166 83 -181 57 -966 -9 -283 -28 -873 -41 -1310 -14 -437 -28 -862 -31 -945
-4 -82 -6 -196 -5 -252 1 -57 -2 -103 -6 -103 -5 0 -8 -41 -8 -92 0 -64 -4
-92 -12 -95 -8 -3 -13 3 -13 14 0 15 2 16 10 3 8 -13 10 -12 10 3 0 9 -5 17
-10 17 -7 0 -7 7 0 20 6 12 10 47 9 78 -1 31 1 71 5 87 3 18 0 13 -10 -12
l-16 -43 -479 0 c-427 0 -479 -2 -479 -16 0 -8 -4 -13 -9 -10 -5 3 -8 45 -7
93 1 49 -1 103 -4 121 l-5 33 -1714 -1 c-1033 0 -1718 4 -1725 9 -8 7 -10 -30
-8 -135 l3 -144 1735 3 c953 1 1734 -1 1734 -5 0 -5 -775 -8 -1723 -8 -1365 0
-1726 -3 -1736 -12 -10 -11 -14 -10 -22 5 -6 9 -15 17 -21 17 -7 0 -7 -4 0
-12 8 -10 -106 -12 -569 -10 -371 1 -579 6 -579 12 0 6 -5 10 -11 10 -6 0 -9
-7 -5 -15 3 -8 2 -15 -2 -15 -15 0 -32 56 -34 109 l-1 56 -7 -60 c-4 -33 -7
-52 -8 -42 -1 9 -6 17 -12 17 -5 0 -8 -16 -6 -36 3 -41 -9 -56 -16 -19 -3 14
-1 25 4 25 5 0 3 7 -6 15 -12 13 -70 15 -394 15 l-380 0 4 -42 c3 -32 2 -38
-5 -23 -5 11 -10 47 -11 80 -1 33 -5 69 -9 79 -11 28 -2 -153 10 -188 12 -37
11 -46 -1 -46 -5 0 -11 15 -11 33 l-2 32 -6 -35 c-4 -21 -7 11 -8 80 -1 63 -5
151 -8 195 -3 44 -23 613 -45 1265 -22 652 -42 1237 -45 1300 -12 255 -19 499
-17 572 12 361 291 660 657 707 105 13 5308 14 5436 0z"/>
<path d="M40434 6923 l-9 -158 -5 125 -6 125 -2 -123 c-1 -79 -6 -121 -12
-117 -5 3 -10 40 -10 80 l0 75 -922 2 c-508 2 -931 0 -940 -4 -9 -5 -18 -3
-20 3 -2 6 -16 12 -31 12 -15 0 -24 3 -21 8 9 15 -13 10 -25 -5 -9 -11 -9 -15
1 -19 8 -3 5 -6 -7 -7 -11 -1 -25 -3 -30 -4 -18 -2 -228 -136 -233 -148 -2 -4
-8 -8 -13 -8 -17 0 -117 -69 -123 -86 -3 -9 -12 -14 -20 -11 -13 5 -88 -38
-94 -55 -2 -4 -8 -8 -14 -8 -13 0 -170 -99 -179 -113 -8 -12 -20 28 -23 78 -1
22 -3 132 -6 245 -2 113 -5 187 -7 165 -3 -22 -11 -44 -19 -48 -10 -6 -15 -30
-16 -80 l-2 -72 -5 75 -6 75 -897 3 -898 2 0 -40 c0 -22 -5 -40 -11 -40 -8 0
-9 24 -4 80 4 50 3 80 -3 80 -14 0 -21 -223 -24 -740 l-3 -455 2329 0 2330 0
-3 630 c-1 347 -4 631 -6 633 -1 2 -7 -68 -11 -155z"/>
<path d="M9316 7683 c-33 -5 -102 -46 -129 -77 -38 -43 -57 -94 -57 -153 1
-164 147 -268 312 -223 75 21 158 139 158 224 0 75 -69 176 -142 209 -38 18
-100 26 -142 20z"/>
<path d="M10291 5983 c-11 -16 -33 -45 -48 -66 -131 -177 -340 -446 -348 -446
-8 -1 -382 266 -524 373 -21 16 -38 23 -44 17 -5 -5 -7 -14 -3 -19 3 -5 127
-98 276 -206 148 -109 270 -199 270 -202 0 -4 -205 -276 -262 -349 -132 -167
-160 -215 -128 -215 6 0 49 53 97 118 48 64 90 119 93 122 9 8 184 239 205
270 11 17 24 30 28 30 5 0 88 -58 185 -128 98 -71 193 -139 212 -152 19 -13
37 -27 40 -30 3 -3 33 -26 68 -50 49 -34 65 -41 72 -30 8 12 -141 127 -462
355 -42 30 -79 59 -83 64 -6 10 13 38 116 171 167 217 289 381 289 390 0 20
-28 10 -49 -17z"/>
<path d="M6707 5452 c-24 -21 -42 -42 -40 -48 2 -6 -6 -19 -17 -29 -20 -18
-21 -18 -14 0 5 12 -11 3 -44 -25 -29 -25 -52 -47 -52 -50 0 -3 23 -30 50 -60
183 -200 194 -210 202 -198 5 8 7 4 6 -12 -2 -18 2 -25 13 -24 9 1 16 -4 15
-11 0 -6 40 -55 89 -109 50 -54 92 -103 94 -108 2 -6 10 0 17 13 7 13 13 18
14 11 0 -6 17 7 38 30 20 23 36 45 35 49 -3 10 50 115 60 117 13 4 9 13 -22
48 -17 18 -31 38 -31 44 0 6 -4 8 -10 5 -5 -3 -10 -1 -10 5 0 7 -6 10 -14 7
-8 -3 -17 -1 -20 6 -3 9 -8 8 -16 -3 -10 -13 -11 -13 -7 0 2 8 12 14 21 14 13
-2 14 1 5 12 -6 8 -16 11 -21 8 -5 -3 -8 0 -6 7 4 19 -53 81 -68 75 -8 -3 -11
1 -7 10 3 10 -4 25 -18 37 -14 12 -64 66 -112 119 l-87 97 -43 -37z"/>
<path d="M33830 4801 c-36 -21 -159 -93 -275 -160 -201 -117 -326 -191 -334
-197 -3 -3 60 -130 147 -294 24 -46 46 -75 55 -74 8 1 65 37 126 80 61 44 205
145 319 226 114 80 219 157 235 170 l27 23 -30 35 c-17 19 -65 79 -108 132
-42 54 -81 98 -87 97 -5 0 -39 -17 -75 -38z"/>
<path d="M33868 4007 c-12 -18 -45 -63 -73 -102 -28 -38 -83 -113 -121 -165
-129 -177 -284 -385 -300 -403 -16 -19 -12 -51 5 -45 5 2 51 59 102 128 174
235 439 600 439 604 0 2 -7 6 -15 9 -9 4 -23 -6 -37 -26z"/>
</g>
</svg>
